<?xml version="1.0" encoding="utf-8"?>
<!-- Generator: Adobe Illustrator 19.0.0, SVG Export Plug-In . SVG Version: 6.00 Build 0)  -->
<svg version="1.1" id="Layer_1" xmlns="http://www.w3.org/2000/svg" xmlns:xlink="http://www.w3.org/1999/xlink" x="0px" y="0px"
	 viewBox="0 0 612 792" style="enable-background:new 0 0 612 792;" xml:space="preserve">
<style type="text/css">
	.st0{opacity:0.12;}
	.st1{fill:#FFFFFF;stroke:#000000;stroke-width:20;stroke-miterlimit:10;}
	.st2{fill:#010101;}
</style>
<g id="XMLID_1_" class="st0">
	<path id="XMLID_4_" class="st1" d="M421.6,262c-31-26.8-71.4-43-115.6-43c-97.8,0-177,79.2-177,177c0,44.7,16.6,85.6,43.9,116.7"/>
	<path id="XMLID_3_" class="st1" d="M448.3,290.7C470.1,320.1,483,356.6,483,396c0,97.8-79.2,177-177,177
		c-37.6,0-72.4-11.7-101-31.6c-1.7-1.2-3.3-2.3-4.9-3.6"/>
	<g id="XMLID_5_">
		<path id="XMLID_1_" class="st2" d="M389,269.2L389,269.2c0.2-3.7,3.3-6.6,7-6.5l17.5,0.5c3.7,0.1,6.9-2.9,7-6.6l0.5-17.5
			c0.1-3.7,3.1-6.6,6.8-6.6l0,0c3.8,0,6.9,3.2,6.8,7l-0.8,31.1c-0.1,3.8-3.2,6.7-7,6.6l-31.1-0.8C391.8,276.2,388.8,273,389,269.2z"
			/>
	</g>
	<g id="XMLID_6_">
		<path id="XMLID_7_" class="st2" d="M230.9,528.8L230.9,528.8c0.2,3.7-2.6,6.8-6.3,7.1l-17.5,1.2c-3.7,0.3-6.6,3.5-6.3,7.2
			l1.2,17.5c0.2,3.7-2.5,6.9-6.2,7.2l0,0c-3.8,0.3-7.1-2.5-7.4-6.3l-2.1-31.1c-0.3-3.7,2.6-7,6.3-7.2l31.1-2.1
			C227.4,522,230.7,524.9,230.9,528.8z"/>
	</g>
	<g id="XMLID_10_">
		<path id="XMLID_11_" class="st2" d="M389.3,365.5c0-0.3-0.1-0.5-0.1-0.7c-0.4-2.4-1.6-4.5-3.7-5.8c-1.5-1-3.2-1.3-4.9-1.1
			c-0.2,0-0.4,0-0.6,0l-53.8,4.9l5-76c0.3-4.2-3.3-7.8-8-8.1c-2.6-0.2-4.9,0.7-6.5,2.1c-0.7,0.5-1.3,1.2-1.8,2l-89.1,125.1
			c-1.4,2-2,4.4-1.8,6.6c0,0,0,0.1,0,0.1c0.1,1,0.4,2,0.9,2.9c0.6,1.1,1.4,2.1,2.5,2.8c0.4,0.3,0.8,0.5,1.3,0.7
			c1.7,0.9,3.8,1.3,6,1.1l56.2-5.1l-6.5,90.7c-0.1,0.8,0,1.5,0.1,2.2c0.1,2.9,1.4,5.5,3.8,7c4.1,2.5,9.7,0.8,12.6-3.9l86.8-140.9
			c0.8-1.4,1.4-2.9,1.6-4.3C389.4,367,389.4,366.3,389.3,365.5z M308.5,408.8c0-0.5,0-0.9,0-1.4c0-0.2,0-0.5,0-0.7
			c-0.4-4.7-5.2-8-10.6-7.6l-48.1,4.4l62.7-88l-3.7,56.8c-0.3,4.2,3.3,7.8,8,8.1c0.5,0,1,0,1.5,0c0,0,0.1,0,0.2,0l46.4-4.2l-61,98.8
			L308.5,408.8z"/>
	</g>
</g>
</svg>
